<svg xmlns="http://www.w3.org/2000/svg" viewBox="0 0 47.12 9.91"><defs><style>.cls-1{fill:#930912}</style></defs><path d="M2.58 9.91a2.53 2.53 0 0 1-1.4-.36 2.26 2.26 0 0 1-.84-1A4 4 0 0 1 0 7.08l1.2-.32a5.38 5.38 0 0 0 .16 1 1.82 1.82 0 0 0 .42.79 1.06 1.06 0 0 0 .8.3 1 1 0 0 0 .8-.29 1.22 1.22 0 0 0 .27-.85 1.73 1.73 0 0 0-.3-1.06 5.13 5.13 0 0 0-.76-.81L1 4.39a2.66 2.66 0 0 1-.71-.92A3 3 0 0 1 0 2.24 2.17 2.17 0 0 1 .64.59 2.29 2.29 0 0 1 2.3 0a3.13 3.13 0 0 1 1 .15 1.79 1.79 0 0 1 .73.46 2.27 2.27 0 0 1 .47.79 4.61 4.61 0 0 1 .23 1.11l-1.13.31a4.63 4.63 0 0 0-.14-.88 1.36 1.36 0 0 0-.38-.65A1.14 1.14 0 0 0 2.3 1a1.09 1.09 0 0 0-.78.27 1.05 1.05 0 0 0-.28.8 1.55 1.55 0 0 0 .15.73 2.08 2.08 0 0 0 .48.59l1.65 1.48A5.23 5.23 0 0 1 4.49 6a2.89 2.89 0 0 1 .42 1.6 2.45 2.45 0 0 1-.3 1.24 2.1 2.1 0 0 1-.82.8 2.6 2.6 0 0 1-1.21.27ZM8.77 9.91a2.69 2.69 0 0 1-1.62-.42 2.14 2.14 0 0 1-.77-1.18 7.22 7.22 0 0 1-.2-1.78V.08h1.3v6.51a6.8 6.8 0 0 0 .08 1.14 1.53 1.53 0 0 0 .37.81 1.09 1.09 0 0 0 .84.3 1.08 1.08 0 0 0 .85-.3 1.45 1.45 0 0 0 .38-.81 6.76 6.76 0 0 0 .09-1.14V.08h1.28v6.45a7.22 7.22 0 0 1-.2 1.78 2.12 2.12 0 0 1-.76 1.18 2.67 2.67 0 0 1-1.64.42ZM13.06 9.8l.18-9.72h1.33L16.28 8 18 .08h1.32l.18 9.72h-1.08l-.11-7-1.64 7h-.77l-1.63-7-.11 7ZM21.28 9.8l.18-9.72h1.33L24.5 8 26.23.08h1.32l.18 9.72h-1.09l-.11-7-1.64 7h-.77l-1.63-7-.11 7ZM29 9.8 31.06.08h1.3l2.08 9.72h-1.28l-.45-2.44h-2l-.45 2.44Zm1.92-3.42h1.62L31.72 2ZM35.72 9.8V.08h2a4.37 4.37 0 0 1 1.61.26 1.79 1.79 0 0 1 .94.83 3.2 3.2 0 0 1 .31 1.49 4.1 4.1 0 0 1-.12 1 1.91 1.91 0 0 1-.39.78 1.45 1.45 0 0 1-.69.46l1.34 4.9h-1.31l-1.27-4.56h-1.06V9.8Zm1.36-5.53h.52a2.68 2.68 0 0 0 .93-.14 1 1 0 0 0 .53-.49 2.36 2.36 0 0 0 .17-1 2 2 0 0 0-.31-1.23 1.58 1.58 0 0 0-1.24-.37h-.6ZM43.74 9.8V6.37L41.64.08h1.26l1.49 4.7 1.46-4.7h1.27L45 6.37V9.8Z" class="cls-1"/></svg>
